<svg width="48" height="48" viewBox="0 0 48 48" fill="none" xmlns="http://www.w3.org/2000/svg">
<circle cx="24" cy="24" r="24" fill="black"/>
<path d="M14.1016 32H11.2988V17.9961H14.1016V23.6016H19.6973V17.9961H22.5V32H19.6973V26.4043H14.1016V32ZM36.3281 24.998C36.3281 25.6426 36.2435 26.2643 36.0742 26.8633C35.9115 27.4557 35.6771 28.0124 35.3711 28.5332C35.0651 29.0475 34.7005 29.5195 34.2773 29.9492C33.8542 30.3724 33.3822 30.737 32.8613 31.043C32.3405 31.349 31.7806 31.5866 31.1816 31.7559C30.5892 31.9186 29.9707 32 29.3262 32H25.1074V17.9961H29.3262C29.9707 17.9961 30.5892 18.0807 31.1816 18.25C31.7806 18.4128 32.3405 18.6471 32.8613 18.9531C33.3822 19.2591 33.8542 19.627 34.2773 20.0566C34.7005 20.4798 35.0651 20.9518 35.3711 21.4727C35.6771 21.987 35.9115 22.5436 36.0742 23.1426C36.2435 23.735 36.3281 24.3535 36.3281 24.998ZM33.5254 24.998C33.5254 24.4186 33.4147 23.875 33.1934 23.3672C32.9785 22.8594 32.679 22.4167 32.2949 22.0391C31.9173 21.6549 31.4714 21.3522 30.957 21.1309C30.4492 20.9095 29.9056 20.7988 29.3262 20.7988H27.9297V29.1973H29.3262C29.9056 29.1973 30.4492 29.0898 30.957 28.875C31.4714 28.6536 31.9173 28.3542 32.2949 27.9766C32.679 27.5924 32.9785 27.1465 33.1934 26.6387C33.4147 26.1243 33.5254 25.5775 33.5254 24.998Z" fill="white"/>
</svg>
